Mailpile-Bold.ufo
<glyph name="parenleft" format="1">
  <advance width="604"/>
  <unicode hex="0028"/>
  <outline>
    <contour>
      <point x="196" y="1481"/>
      <point x="42" y="1224"/>
      <point x="42" y="747" type="curve"/>
      <point x="42" y="282"/>
      <point x="172" y="64"/>
      <point x="436" y="-167" type="curve"/>
      <point x="577" y="21" type="line"/>
      <point x="364" y="197"/>
      <point x="267" y="384"/>
      <point x="265" y="746" type="curve" smooth="yes"/>
      <point x="265" y="1078"/>
      <point x="362" y="1283"/>
      <point x="567" y="1450" type="curve"/>
      <point x="463" y="1653" type="line"/>
    </contour>
  </outline>
</glyph>
<glyph name="period" format="1">
  <advance width="500"/>
  <unicode hex="002E"/>
  <outline>
    <contour>
      <point x="161" y="304"/>
      <point x="91" y="229"/>
      <point x="91" y="142" type="curve"/>
      <point x="91" y="53"/>
      <point x="161" y="-17"/>
      <point x="250" y="-17" type="curve" smooth="yes"/>
      <point x="338" y="-17"/>
      <point x="412" y="53"/>
      <point x="412" y="141" type="curve" smooth="yes"/>
      <point x="412" y="224"/>
      <point x="358" y="304"/>
      <point x="250" y="304" type="curve" smooth="yes"/>
    </contour>
  </outline>
</glyph>
<glyph name="zero" format="1">
  <advance width="1274"/>
  <unicode hex="0030"/>
  <outline>
    <contour>
      <point x="263" y="1527"/>
      <point x="79" y="1201"/>
      <point x="79" y="765" type="curve"/>
      <point x="79" y="330"/>
      <point x="245" y="-19"/>
      <point x="638" y="-20" type="curve" smooth="yes"/>
      <point x="1030" y="-21"/>
      <point x="1198" y="299"/>
      <point x="1198" y="765" type="curve" smooth="yes"/>
      <point x="1198" y="1169"/>
      <point x="1009" y="1527"/>
      <point x="638" y="1527" type="curve" smooth="yes"/>
    </contour>
    <contour>
      <point x="881" y="1291"/>
      <point x="957" y="1034"/>
      <point x="957" y="765" type="curve" smooth="yes"/>
      <point x="957" y="478"/>
      <point x="888" y="207"/>
      <point x="638" y="208" type="curve" smooth="yes"/>
      <point x="387" y="209"/>
      <point x="320" y="478"/>
      <point x="320" y="765" type="curve" smooth="yes"/>
      <point x="320" y="1035"/>
      <point x="410" y="1291"/>
      <point x="638" y="1291" type="curve" smooth="yes"/>
    </contour>
  </outline>
</glyph>
<glyph name="question" format="1">
  <advance width="911"/>
  <unicode hex="003F"/>
  <outline>
    <contour>
      <point x="315" y="1519"/>
      <point x="209" y="1474"/>
      <point x="136" y="1403" type="curve" smooth="yes"/>
      <point x="59" y="1328"/>
      <point x="20" y="1233"/>
      <point x="20" y="1077" type="curve"/>
      <point x="262" y="1077" type="line"/>
      <point x="262" y="1216"/>
      <point x="327" y="1295"/>
      <point x="446" y="1295" type="curve" smooth="yes"/>
      <point x="560" y="1295"/>
      <point x="625" y="1226"/>
      <point x="625" y="1105" type="curve" smooth="yes"/>
      <point x="625" y="1021"/>
      <point x="589" y="945"/>
      <point x="524" y="871" type="curve" smooth="yes"/>
      <point x="406" y="737"/>
      <point x="330" y="639"/>
      <point x="304" y="477" type="curve" smooth="yes"/>
      <point x="298" y="442"/>
      <point x="302" y="424"/>
      <point x="303" y="406" type="curve"/>
      <point x="534" y="406" type="line"/>
      <point x="534" y="436"/>
      <point x="542" y="465"/>
      <point x="560" y="517" type="curve" smooth="yes"/>
      <point x="574" y="557"/>
      <point x="593" y="600"/>
      <point x="740" y="766" type="curve" smooth="yes"/>
      <point x="833" y="870"/>
      <point x="877" y="996"/>
      <point x="877" y="1113" type="curve" smooth="yes"/>
      <point x="877" y="1313"/>
      <point x="748" y="1519"/>
      <point x="448" y="1519" type="curve" smooth="yes"/>
    </contour>
    <contour>
      <point x="338" y="295"/>
      <point x="266" y="223"/>
      <point x="266" y="137" type="curve" smooth="yes"/>
      <point x="266" y="54"/>
      <point x="339" y="-18"/>
      <point x="422" y="-18" type="curve" smooth="yes"/>
      <point x="508" y="-18"/>
      <point x="579" y="53"/>
      <point x="579" y="137" type="curve" smooth="yes"/>
      <point x="579" y="222"/>
      <point x="507" y="295"/>
      <point x="422" y="295" type="curve" smooth="yes"/>
    </contour>
  </outline>
</glyph>
<glyph name="I" format="1">
  <advance width="646"/>
  <unicode hex="0049"/>
  <outline>
    <contour>
      <point x="82" y="1478" type="line"/>
      <point x="82" y="1263" type="line"/>
      <point x="208" y="1263" type="line"/>
      <point x="208" y="214" type="line"/>
      <point x="82" y="214" type="line"/>
      <point x="82" y="-1" type="line"/>
      <point x="564" y="-1" type="line"/>
      <point x="564" y="214" type="line"/>
      <point x="438" y="214" type="line"/>
      <point x="438" y="1263" type="line"/>
      <point x="564" y="1263" type="line"/>
      <point x="564" y="1478" type="line"/>
    </contour>
    <contour>
      <point x="514" y="80" type="move" name="ogonek"/>
    </contour>
  </outline>
</glyph>
<glyph name="K" format="1">
  <advance width="1226"/>
  <unicode hex="004B"/>
  <outline>
    <contour>
      <point x="930" y="1494" type="line"/>
      <point x="479" y="882" type="line"/>
      <point x="382" y="882" type="line"/>
      <point x="382" y="1375" type="line" smooth="yes"/>
      <point x="382" y="1450"/>
      <point x="338" y="1494"/>
      <point x="263" y="1494" type="curve" smooth="yes"/>
      <point x="10" y="1494" type="line"/>
      <point x="10" y="1262" type="line"/>
      <point x="136" y="1262" type="line"/>
      <point x="136" y="-2" type="line"/>
      <point x="383" y="-2" type="line"/>
      <point x="383" y="651" type="line"/>
      <point x="470" y="651" type="line"/>
      <point x="839" y="70" type="line" smooth="yes"/>
      <point x="865" y="28"/>
      <point x="920" y="-2"/>
      <point x="966" y="-2" type="curve"/>
      <point x="1170" y="-2" type="line"/>
      <point x="1170" y="230" type="line"/>
      <point x="1019" y="230" type="line"/>
      <point x="684" y="760" type="line"/>
      <point x="1222" y="1494" type="line"/>
    </contour>
  </outline>
</glyph>
<glyph name="P" format="1">
  <advance width="1193"/>
  <unicode hex="0050"/>
  <outline>
    <contour>
      <point x="47" y="1496" type="line"/>
      <point x="47" y="1265" type="line"/>
      <point x="173" y="1265" type="line"/>
      <point x="173" y="1" type="line"/>
      <point x="420" y="1" type="line"/>
      <point x="420" y="583" type="line"/>
      <point x="597" y="583" type="line" smooth="yes"/>
      <point x="893" y="583"/>
      <point x="1130" y="737"/>
      <point x="1130" y="1041" type="curve" smooth="yes"/>
      <point x="1130" y="1332"/>
      <point x="912" y="1496"/>
      <point x="597" y="1496" type="curve" smooth="yes"/>
    </contour>
    <contour>
      <point x="753" y="1265"/>
      <point x="880" y="1208"/>
      <point x="880" y="1042" type="curve" smooth="yes"/>
      <point x="880" y="880"/>
      <point x="762" y="815"/>
      <point x="597" y="815" type="curve" smooth="yes"/>
      <point x="421" y="815" type="line"/>
      <point x="421" y="1265" type="line"/>
      <point x="597" y="1265" type="line" smooth="yes"/>
    </contour>
  </outline>
</glyph>
<glyph name="S" format="1">
  <advance width="1184"/>
  <unicode hex="0053"/>
  <outline>
    <contour>
      <point x="278" y="1526"/>
      <point x="89" y="1369"/>
      <point x="89" y="1120" type="curve"/>
      <point x="89" y="853"/>
      <point x="303" y="744"/>
      <point x="550" y="654" type="curve" smooth="yes"/>
      <point x="679" y="607"/>
      <point x="849" y="561"/>
      <point x="849" y="398" type="curve" smooth="yes"/>
      <point x="849" y="278"/>
      <point x="712" y="217"/>
      <point x="597" y="217" type="curve" smooth="yes"/>
      <point x="415" y="217"/>
      <point x="323" y="321"/>
      <point x="236" y="478" type="curve"/>
      <point x="23" y="364" type="line"/>
      <point x="144" y="110"/>
      <point x="310" y="-20"/>
      <point x="587" y="-20" type="curve" smooth="yes"/>
      <point x="865" y="-20"/>
      <point x="1099" y="155"/>
      <point x="1099" y="423" type="curve" smooth="yes"/>
      <point x="1099" y="726"/>
      <point x="854" y="805"/>
      <point x="630" y="890" type="curve" smooth="yes"/>
      <point x="474" y="949"/>
      <point x="339" y="993"/>
      <point x="339" y="1128" type="curve" smooth="yes"/>
      <point x="339" y="1251"/>
      <point x="459" y="1290"/>
      <point x="588" y="1290" type="curve" smooth="yes"/>
      <point x="673" y="1290"/>
      <point x="754" y="1274"/>
      <point x="812" y="1246" type="curve" smooth="yes"/>
      <point x="835" y="1235"/>
      <point x="839" y="1221"/>
      <point x="839" y="1194" type="curve" smooth="yes"/>
      <point x="839" y="1085" type="line"/>
      <point x="1070" y="1080" type="line"/>
      <point x="1068" y="1227" type="line" smooth="yes"/>
      <point x="1067" y="1349"/>
      <point x="1010" y="1410"/>
      <point x="935" y="1453" type="curve" smooth="yes"/>
      <point x="833" y="1512"/>
      <point x="686" y="1526"/>
      <point x="597" y="1526" type="curve" smooth="yes"/>
    </contour>
  </outline>
</glyph>
<glyph name="l" format="1">
  <advance width="638"/>
  <unicode hex="006C"/>
  <outline>
    <contour>
      <point x="72" y="1456" type="line"/>
      <point x="72" y="1230" type="line"/>
      <point x="191" y="1230" type="line"/>
      <point x="191" y="246" type="line" smooth="yes"/>
      <point x="191" y="149"/>
      <point x="211" y="88"/>
      <point x="239" y="57" type="curve" smooth="yes"/>
      <point x="278" y="14"/>
      <point x="333" y="-1"/>
      <point x="428" y="-1" type="curve" smooth="yes"/>
      <point x="588" y="-1" type="line"/>
      <point x="588" y="225" type="line"/>
      <point x="450" y="225" type="line" smooth="yes"/>
      <point x="443" y="225"/>
      <point x="439" y="225"/>
      <point x="433" y="229" type="curve" smooth="yes"/>
      <point x="429" y="232"/>
      <point x="428" y="239"/>
      <point x="428" y="246" type="curve" smooth="yes"/>
      <point x="428" y="1341" type="line" smooth="yes"/>
      <point x="428" y="1378"/>
      <point x="416" y="1403"/>
      <point x="399" y="1422" type="curve" smooth="yes"/>
      <point x="381" y="1442"/>
      <point x="356" y="1456"/>
      <point x="315" y="1456" type="curve" smooth="yes"/>
    </contour>
  </outline>
</glyph>
<glyph name="u" format="1">
  <advance width="1302"/>
  <unicode hex="0075"/>
  <outline>
    <contour>
      <point x="55" y="859" type="line"/>
      <point x="172" y="859" type="line"/>
      <point x="172" y="385" type="line" smooth="yes"/>
      <point x="172" y="66"/>
      <point x="398" y="-19"/>
      <point x="572" y="-19" type="curve" smooth="yes"/>
      <point x="729" y="-19"/>
      <point x="831" y="36"/>
      <point x="907" y="129" type="curve"/>
      <point x="879" y="155" type="line"/>
      <point x="883" y="117"/>
      <point x="897" y="79"/>
      <point x="922" y="51" type="curve" smooth="yes"/>
      <point x="951" y="19"/>
      <point x="1000" y="-3"/>
      <point x="1075" y="-3" type="curve" smooth="yes"/>
      <point x="1261" y="-3" type="line"/>
      <point x="1261" y="223" type="line"/>
      <point x="1123" y="223" type="line" smooth="yes"/>
      <point x="1111" y="223"/>
      <point x="1112" y="223"/>
      <point x="1105" y="226" type="curve" smooth="yes"/>
      <point x="1101" y="228"/>
      <point x="1101" y="240"/>
      <point x="1101" y="243" type="curve" smooth="yes"/>
      <point x="1101" y="1086" type="line"/>
      <point x="864" y="1086" type="line"/>
      <point x="864" y="329" type="line"/>
      <point x="807" y="271"/>
      <point x="729" y="208"/>
      <point x="599" y="208" type="curve" smooth="yes"/>
      <point x="522" y="208"/>
      <point x="409" y="234"/>
      <point x="409" y="406" type="curve" smooth="yes"/>
      <point x="409" y="972" type="line" smooth="yes"/>
      <point x="409" y="1012"/>
      <point x="394" y="1040"/>
      <point x="372" y="1058" type="curve" smooth="yes"/>
      <point x="352" y="1074"/>
      <point x="325" y="1085"/>
      <point x="288" y="1085" type="curve" smooth="yes"/>
      <point x="55" y="1085" type="line"/>
    </contour>
    <contour>
      <point x="1208" y="76" type="move" name="ogonek"/>
    </contour>
  </outline>
</glyph>
<glyph name="cent" format="1">
  <advance width="1066"/>
  <unicode hex="00A2"/>
  <outline>
    <contour>
      <point x="573" y="1629" type="line"/>
      <point x="545" y="1305" type="line"/>
      <point x="168" y="1279"/>
      <point x="80" y="937"/>
      <point x="80" y="693" type="curve"/>
      <point x="80" y="411"/>
      <point x="204" y="161"/>
      <point x="442" y="93" type="curve"/>
      <point x="412" y="-247" type="line"/>
      <point x="595" y="-247" type="line"/>
      <point x="621" y="79" type="line"/>
      <point x="818" y="94"/>
      <point x="934" y="187"/>
      <point x="1028" y="427" type="curve"/>
      <point x="817" y="496" type="line"/>
      <point x="764" y="357"/>
      <point x="724" y="316"/>
      <point x="642" y="294" type="curve"/>
      <point x="710" y="1086" type="line"/>
      <point x="767" y="1070"/>
      <point x="805" y="1057"/>
      <point x="914" y="997" type="curve"/>
      <point x="1004" y="1195" type="line"/>
      <point x="873" y="1261"/>
      <point x="814" y="1279"/>
      <point x="727" y="1295" type="curve"/>
      <point x="756" y="1629" type="line"/>
    </contour>
    <contour>
      <point x="460" y="320" type="line"/>
      <point x="356" y="384"/>
      <point x="324" y="558"/>
      <point x="324" y="706" type="curve" smooth="yes"/>
      <point x="324" y="893"/>
      <point x="389" y="1065"/>
      <point x="528" y="1094" type="curve"/>
    </contour>
  </outline>
</glyph>
<glyph name="brokenbar" format="1">
  <advance width="537"/>
  <unicode hex="00A6"/>
  <outline>
    <contour>
      <point x="161" y="1598" type="line"/>
      <point x="161" y="846" type="line"/>
      <point x="376" y="846" type="line"/>
      <point x="376" y="1598" type="line"/>
    </contour>
    <contour>
      <point x="161" y="513" type="line"/>
      <point x="161" y="-121" type="line"/>
      <point x="376" y="-121" type="line"/>
      <point x="376" y="513" type="line"/>
    </contour>
  </outline>
</glyph>
<glyph name="uni00B3" format="1">
  <advance width="811"/>
  <unicode hex="00B3"/>
  <outline>
    <contour>
      <point x="197" y="1589"/>
      <point x="78" y="1467"/>
      <point x="78" y="1287" type="curve"/>
      <point x="299" y="1287" type="line"/>
      <point x="299" y="1349.17"/>
      <point x="332.365" y="1388"/>
      <point x="388" y="1388" type="curve" smooth="yes"/>
      <point x="444.317" y="1388"/>
      <point x="480" y="1359.08"/>
      <point x="480" y="1312" type="curve" smooth="yes"/>
      <point x="480" y="1246.58"/>
      <point x="429" y="1216"/>
      <point x="339" y="1219" type="curve" smooth="yes"/>
      <point x="282" y="1221" type="line"/>
      <point x="282" y="1043" type="line"/>
      <point x="344" y="1043" type="line" smooth="yes"/>
      <point x="440.25" y="1043"/>
      <point x="499" y="1018"/>
      <point x="499" y="948" type="curve" smooth="yes"/>
      <point x="499" y="891.955"/>
      <point x="454.99" y="866"/>
      <point x="390" y="866" type="curve" smooth="yes"/>
      <point x="326" y="866"/>
      <point x="289" y="905"/>
      <point x="289" y="969" type="curve"/>
      <point x="66" y="969" type="line"/>
      <point x="66" y="783.542"/>
      <point x="181.054" y="665"/>
      <point x="396" y="665" type="curve" smooth="yes"/>
      <point x="609.923" y="665"/>
      <point x="732" y="768.011"/>
      <point x="732" y="949" type="curve" smooth="yes"/>
      <point x="732" y="1022.54"/>
      <point x="697.039" y="1093.62"/>
      <point x="639" y="1138" type="curve"/>
      <point x="689.515" y="1184.63"/>
      <point x="715" y="1245.33"/>
      <point x="715" y="1314" type="curve" smooth="yes"/>
      <point x="715" y="1490.92"/>
      <point x="594.74" y="1589"/>
      <point x="395" y="1589" type="curve" smooth="yes"/>
    </contour>
  </outline>
</glyph>
<glyph name="uni00B5" format="1">
  <advance width="1440"/>
  <unicode hex="00B5"/>
  <outline>
    <contour>
      <point x="946" y="1222" type="line"/>
      <point x="946" y="277" type="line"/>
      <point x="845" y="196"/>
      <point x="732" y="145"/>
      <point x="609" y="145" type="curve" smooth="yes"/>
      <point x="482" y="145"/>
      <point x="452" y="201"/>
      <point x="452" y="337" type="curve" smooth="yes"/>
      <point x="452" y="1107" type="line" smooth="yes"/>
      <point x="452" y="1180"/>
      <point x="406" y="1220"/>
      <point x="333" y="1220" type="curve" smooth="yes"/>
      <point x="190" y="1220" type="line"/>
      <point x="190" y="-534" type="line"/>
      <point x="441" y="-514" type="line"/>
      <point x="441" y="-54" type="line"/>
      <point x="474" y="-67"/>
      <point x="524" y="-83"/>
      <point x="598" y="-83" type="curve" smooth="yes"/>
      <point x="735" y="-83"/>
      <point x="859" y="-30"/>
      <point x="972" y="44" type="curve"/>
      <point x="1009" y="-38"/>
      <point x="1080" y="-92"/>
      <point x="1193" y="-92" type="curve"/>
      <point x="1404" y="-92" type="line"/>
      <point x="1403" y="159" type="line"/>
      <point x="1255" y="159" type="line" smooth="yes"/>
      <point x="1214" y="159"/>
      <point x="1209" y="171"/>
      <point x="1209" y="218" type="curve" smooth="yes"/>
      <point x="1209" y="1105" type="line" smooth="yes"/>
      <point x="1209" y="1187"/>
      <point x="1160" y="1222"/>
      <point x="1073" y="1222" type="curve" smooth="yes"/>
    </contour>
  </outline>
</glyph>
<glyph name="paragraph" format="1">
  <advance width="1203"/>
  <unicode hex="00B6"/>
  <outline>
    <contour>
      <point x="539" y="1433" type="line" smooth="yes"/>
      <point x="409" y="1433"/>
      <point x="296" y="1387"/>
      <point x="200" y="1297" type="curve" smooth="yes"/>
      <point x="103" y="1207"/>
      <point x="55" y="1095"/>
      <point x="55" y="963" type="curve"/>
      <point x="55" y="830"/>
      <point x="103" y="718"/>
      <point x="201" y="626" type="curve" smooth="yes"/>
      <point x="286" y="545"/>
      <point x="384" y="501"/>
      <point x="494" y="491" type="curve"/>
      <point x="494" y="-46" type="line"/>
      <point x="694" y="-46" type="line"/>
      <point x="694" y="1224" type="line"/>
      <point x="1137" y="1224" type="line"/>
      <point x="1137" y="1433" type="line"/>
    </contour>
    <contour>
      <point x="825" y="1095" type="line"/>
      <point x="825" y="-46" type="line"/>
      <point x="1026" y="-46" type="line"/>
      <point x="1026" y="1095" type="line"/>
    </contour>
  </outline>
</glyph>
<glyph name="cedilla" format="1">
  <advance width="570"/>
  <unicode hex="00B8"/>
  <outline>
    <contour>
      <point x="101" y="47" type="line"/>
      <point x="46" y="-228" type="line"/>
      <point x="242" y="-233" type="line" smooth="yes"/>
      <point x="268" y="-234"/>
      <point x="296" y="-246"/>
      <point x="296" y="-274" type="curve" smooth="yes"/>
      <point x="296" y="-303"/>
      <point x="274" y="-319"/>
      <point x="247" y="-319" type="curve" smooth="yes"/>
      <point x="231" y="-319"/>
      <point x="221" y="-312"/>
      <point x="215" y="-301" type="curve"/>
      <point x="43" y="-396" type="line"/>
      <point x="78" y="-466"/>
      <point x="147" y="-505"/>
      <point x="244" y="-505" type="curve" smooth="yes"/>
      <point x="385" y="-505"/>
      <point x="485" y="-418"/>
      <point x="485" y="-281" type="curve" smooth="yes"/>
      <point x="485" y="-149"/>
      <point x="419" y="-81"/>
      <point x="291" y="-58" type="curve"/>
      <point x="315" y="47" type="line"/>
    </contour>
  </outline>
</glyph>
<glyph name="ordmasculine" format="1">
  <advance width="832"/>
  <unicode hex="00BA"/>
  <outline>
    <contour>
      <point x="180" y="1453"/>
      <point x="53" y="1309"/>
      <point x="53" y="1040" type="curve" smooth="yes"/>
      <point x="53" y="780"/>
      <point x="193" y="617"/>
      <point x="419" y="617" type="curve" smooth="yes"/>
      <point x="656" y="628"/>
      <point x="777" y="765"/>
      <point x="777" y="1027" type="curve" smooth="yes"/>
      <point x="777" y="1295"/>
      <point x="629" y="1453"/>
      <point x="407" y="1453" type="curve" smooth="yes"/>
    </contour>
    <contour>
      <point x="506" y="1262"/>
      <point x="559" y="1164"/>
      <point x="559" y="1035" type="curve" smooth="yes"/>
      <point x="559" y="887"/>
      <point x="515" y="807"/>
      <point x="415" y="807" type="curve" smooth="yes"/>
      <point x="327" y="807"/>
      <point x="272" y="899"/>
      <point x="272" y="1038" type="curve" smooth="yes"/>
      <point x="282" y="1202"/>
      <point x="314" y="1262"/>
      <point x="410" y="1262" type="curve" smooth="yes"/>
    </contour>
  </outline>
</glyph>
<glyph name="ae" format="1">
  <advance width="1914"/>
  <unicode hex="00E6"/>
  <outline>
    <contour>
      <point x="1154" y="1104"/>
      <point x="1013" y="1041"/>
      <point x="923" y="934" type="curve" smooth="yes"/>
      <point x="859" y="1041"/>
      <point x="740" y="1104"/>
      <point x="577" y="1104" type="curve"/>
      <point x="327" y="1104"/>
      <point x="159" y="1005"/>
      <point x="150" y="854" type="curve"/>
      <point x="143" y="747" type="line" smooth="yes"/>
      <point x="361" y="747" type="line" smooth="yes"/>
      <point x="369" y="823" type="line"/>
      <point x="377" y="889"/>
      <point x="463" y="900"/>
      <point x="567" y="900" type="curve"/>
      <point x="698" y="900"/>
      <point x="761" y="840"/>
      <point x="775" y="726" type="curve" smooth="yes"/>
      <point x="694" y="726" type="line"/>
      <point x="216" y="726"/>
      <point x="65" y="604"/>
      <point x="65" y="347" type="curve" smooth="yes"/>
      <point x="65" y="84"/>
      <point x="245" y="-18"/>
      <point x="482" y="-18" type="curve"/>
      <point x="672" y="-18"/>
      <point x="821" y="61"/>
      <point x="892" y="197" type="curve" smooth="yes"/>
      <point x="982" y="61"/>
      <point x="1139" y="-19"/>
      <point x="1361" y="-19" type="curve"/>
      <point x="1531" y="-19"/>
      <point x="1685" y="57"/>
      <point x="1813" y="129" type="curve"/>
      <point x="1826" y="136"/>
      <point x="1840" y="144"/>
      <point x="1852" y="151" type="curve" smooth="yes"/>
      <point x="1756" y="334" type="line" smooth="yes"/>
      <point x="1742" y="325"/>
      <point x="1728" y="317"/>
      <point x="1713" y="308" type="curve"/>
      <point x="1633" y="258"/>
      <point x="1487" y="184"/>
      <point x="1359" y="184" type="curve"/>
      <point x="1174" y="184"/>
      <point x="1046" y="286"/>
      <point x="1008" y="456" type="curve" smooth="yes"/>
      <point x="1866" y="456" type="line" smooth="yes"/>
      <point x="1863" y="611" type="line"/>
      <point x="1863" y="900"/>
      <point x="1651" y="1104"/>
      <point x="1347" y="1104" type="curve"/>
    </contour>
    <contour>
      <point x="764" y="304"/>
      <point x="662" y="191"/>
      <point x="487" y="191" type="curve"/>
      <point x="428" y="191"/>
      <point x="285" y="197"/>
      <point x="285" y="353" type="curve"/>
      <point x="285" y="518"/>
      <point x="467" y="518"/>
      <point x="696" y="518" type="curve"/>
      <point x="777" y="518" type="line" smooth="yes"/>
    </contour>
    <contour>
      <point x="1503" y="896"/>
      <point x="1621" y="806"/>
      <point x="1640" y="660" type="curve" smooth="yes"/>
      <point x="1010" y="660" type="line" smooth="yes"/>
      <point x="1034" y="799"/>
      <point x="1165" y="896"/>
      <point x="1347" y="896" type="curve"/>
    </contour>
  </outline>
</glyph>
<glyph name="eth" format="1">
  <advance width="1250"/>
  <unicode hex="00F0"/>
  <outline>
    <contour>
      <point x="553" y="1420" type="line"/>
      <point x="682" y="1291"/>
      <point x="748" y="1209"/>
      <point x="843" y="1060" type="curve"/>
      <point x="783" y="1088"/>
      <point x="715" y="1104"/>
      <point x="625" y="1104" type="curve" smooth="yes"/>
      <point x="308" y="1104"/>
      <point x="58" y="893"/>
      <point x="58" y="541" type="curve" smooth="yes"/>
      <point x="58" y="225"/>
      <point x="274" y="-18"/>
      <point x="625" y="-18" type="curve" smooth="yes"/>
      <point x="1044" y="-18"/>
      <point x="1192" y="300"/>
      <point x="1192" y="542" type="curve"/>
      <point x="1188" y="976"/>
      <point x="924" y="1341"/>
      <point x="694" y="1543" type="curve"/>
    </contour>
    <contour>
      <point x="821" y="896"/>
      <point x="973" y="763"/>
      <point x="973" y="541" type="curve" smooth="yes"/>
      <point x="973" y="341"/>
      <point x="842" y="190"/>
      <point x="625" y="190" type="curve" smooth="yes"/>
      <point x="429" y="190"/>
      <point x="278" y="320"/>
      <point x="278" y="541" type="curve" smooth="yes"/>
      <point x="278" y="747"/>
      <point x="409" y="896"/>
      <point x="625" y="896" type="curve" smooth="yes"/>
    </contour>
    <contour>
      <point x="530" y="1278" type="line"/>
      <point x="577" y="1158" type="line"/>
      <point x="1089" y="1314" type="line"/>
      <point x="1042" y="1434" type="line"/>
    </contour>
  </outline>
</glyph>
<glyph name="Lcaron" format="1">
  <advance width="951"/>
  <unicode hex="013D"/>
  <outline>
    <contour>
      <point x="79" y="1432" type="line"/>
      <point x="79" y="1217" type="line"/>
      <point x="205" y="1217" type="line"/>
      <point x="205" y="-47" type="line"/>
      <point x="873" y="-47" type="line" smooth="yes"/>
      <point x="945" y="-47"/>
      <point x="978" y="-13"/>
      <point x="978" y="59" type="curve" smooth="yes"/>
      <point x="978" y="289" type="line"/>
      <point x="769" y="289" type="line"/>
      <point x="769" y="169" type="line"/>
      <point x="433" y="169" type="line"/>
      <point x="434" y="1432" type="line"/>
    </contour>
    <contour>
      <point x="479" y="1432" type="line"/>
      <point x="479" y="957" type="line"/>
      <point x="689" y="957" type="line"/>
      <point x="689" y="1432" type="line"/>
    </contour>
  </outline>
</glyph>
<glyph name="Lslash" format="1">
  <advance width="1028"/>
  <unicode hex="0141"/>
  <outline>
    <contour>
      <point x="85" y="1494" type="line"/>
      <point x="85" y="1263" type="line"/>
      <point x="211" y="1263" type="line"/>
      <point x="211" y="892" type="line"/>
      <point x="40" y="823" type="line"/>
      <point x="40" y="573" type="line"/>
      <point x="211" y="641" type="line"/>
      <point x="211" y="-1" type="line"/>
      <point x="890" y="-1" type="line" smooth="yes"/>
      <point x="967" y="-1"/>
      <point x="1003" y="36"/>
      <point x="1003" y="114" type="curve" smooth="yes"/>
      <point x="1003" y="352" type="line"/>
      <point x="777" y="352" type="line"/>
      <point x="777" y="231" type="line"/>
      <point x="457" y="231" type="line"/>
      <point x="457" y="740" type="line"/>
      <point x="631" y="809" type="line"/>
      <point x="631" y="1059" type="line"/>
      <point x="458" y="990" type="line"/>
      <point x="458" y="1494" type="line"/>
    </contour>
  </outline>
</glyph>
<glyph name="eng" format="1">
  <advance width="1292"/>
  <unicode hex="014B"/>
  <outline>
    <contour>
      <point x="500" y="1155"/>
      <point x="390" y="1103"/>
      <point x="298" y="1013" type="curve"/>
      <point x="357" y="968" type="line"/>
      <point x="357" y="1021" type="line"/>
      <point x="356" y="1097"/>
      <point x="313" y="1135"/>
      <point x="235" y="1135" type="curve" smooth="yes"/>
      <point x="4" y="1135" type="line"/>
      <point x="4" y="909" type="line"/>
      <point x="136" y="909" type="line"/>
      <point x="136" y="-51" type="line"/>
      <point x="374" y="-51" type="line"/>
      <point x="374" y="788" type="line"/>
      <point x="440" y="866"/>
      <point x="529" y="928"/>
      <point x="644" y="928" type="curve" smooth="yes"/>
      <point x="756" y="928"/>
      <point x="885" y="868"/>
      <point x="885" y="694" type="curve" smooth="yes"/>
      <point x="885" y="-102" type="line" smooth="yes"/>
      <point x="885" y="-215"/>
      <point x="852" y="-302"/>
      <point x="741" y="-302" type="curve" smooth="yes"/>
      <point x="686" y="-302"/>
      <point x="644" y="-295"/>
      <point x="540" y="-266" type="curve"/>
      <point x="485" y="-484" type="line"/>
      <point x="604" y="-516"/>
      <point x="668" y="-529"/>
      <point x="759" y="-529" type="curve" smooth="yes"/>
      <point x="950" y="-529"/>
      <point x="1123" y="-393"/>
      <point x="1123" y="-137" type="curve" smooth="yes"/>
      <point x="1123" y="717" type="line" smooth="yes"/>
      <point x="1123" y="1018"/>
      <point x="891" y="1155"/>
      <point x="652" y="1155" type="curve" smooth="yes"/>
    </contour>
  </outline>
</glyph>
<glyph name="oe" format="1">
  <advance width="2184"/>
  <unicode hex="0153"/>
  <outline>
    <contour>
      <point x="279" y="1155"/>
      <point x="7" y="925"/>
      <point x="7" y="541" type="curve" smooth="yes"/>
      <point x="7" y="196"/>
      <point x="242" y="-70"/>
      <point x="626" y="-70" type="curve" smooth="yes"/>
      <point x="831" y="-70"/>
      <point x="1009" y="9"/>
      <point x="1121" y="153" type="curve"/>
      <point x="1227" y="12"/>
      <point x="1400" y="-71"/>
      <point x="1636" y="-71" type="curve" smooth="yes"/>
      <point x="1822.46" y="-71"/>
      <point x="1989.83" y="12.6708"/>
      <point x="2130" y="91" type="curve" smooth="yes"/>
      <point x="2144" y="99"/>
      <point x="2159" y="107"/>
      <point x="2173" y="115" type="curve"/>
      <point x="2068" y="315" type="line"/>
      <point x="2052" y="305"/>
      <point x="2037" y="296"/>
      <point x="2021" y="286" type="curve" smooth="yes"/>
      <point x="1933.49" y="231.551"/>
      <point x="1773.99" y="151"/>
      <point x="1634" y="151" type="curve" smooth="yes"/>
      <point x="1432" y="151"/>
      <point x="1293" y="262"/>
      <point x="1251" y="448" type="curve"/>
      <point x="2188" y="448" type="line"/>
      <point x="2185" y="617" type="line" smooth="yes"/>
      <point x="2185" y="932"/>
      <point x="1953" y="1155"/>
      <point x="1621" y="1155" type="curve" smooth="yes"/>
      <point x="1390" y="1155"/>
      <point x="1221" y="1072"/>
      <point x="1118" y="934" type="curve"/>
      <point x="1012" y="1070"/>
      <point x="843" y="1155"/>
      <point x="626" y="1155" type="curve" smooth="yes"/>
    </contour>
    <contour>
      <point x="916" y="928"/>
      <point x="1004" y="697"/>
      <point x="1004" y="550" type="curve" smooth="yes"/>
      <point x="1004" y="405"/>
      <point x="935" y="157"/>
      <point x="626" y="157" type="curve" smooth="yes"/>
      <point x="412" y="157"/>
      <point x="247" y="299"/>
      <point x="247" y="541" type="curve" smooth="yes"/>
      <point x="247" y="765"/>
      <point x="390" y="928"/>
      <point x="626" y="928" type="curve" smooth="yes"/>
    </contour>
    <contour>
      <point x="1791" y="928"/>
      <point x="1920" y="830"/>
      <point x="1941" y="670" type="curve"/>
      <point x="1253" y="670" type="line"/>
      <point x="1279" y="822"/>
      <point x="1422" y="928"/>
      <point x="1621" y="928" type="curve" smooth="yes"/>
    </contour>
  </outline>
</glyph>
<glyph name="quoteleft" format="1">
  <advance width="442"/>
  <unicode hex="2018"/>
  <outline>
    <contour>
      <point x="266" y="958"/>
      <point x="340" y="996"/>
      <point x="340" y="1108" type="curve" smooth="yes"/>
      <point x="340" y="1184"/>
      <point x="299" y="1216"/>
      <point x="299" y="1263" type="curve" smooth="yes"/>
      <point x="299" y="1302"/>
      <point x="325" y="1324"/>
      <point x="408" y="1399" type="curve"/>
      <point x="298" y="1515" type="line"/>
      <point x="204" y="1443"/>
      <point x="164" y="1409"/>
      <point x="112" y="1333" type="curve" smooth="yes"/>
      <point x="56" y="1250"/>
      <point x="40" y="1185"/>
      <point x="40" y="1129" type="curve" smooth="yes"/>
      <point x="40" y="983"/>
      <point x="132" y="958"/>
      <point x="189" y="958" type="curve" smooth="yes"/>
    </contour>
  </outline>
</glyph>
<glyph name="perthousand" format="1">
  <advance width="2244"/>
  <unicode hex="2030"/>
  <outline>
    <contour>
      <point x="914" y="1555" type="line"/>
      <point x="433" y="-172" type="line"/>
      <point x="649" y="-172" type="line"/>
      <point x="1130" y="1555" type="line"/>
    </contour>
    <contour>
      <point x="476" y="1283"/>
      <point x="509" y="1171"/>
      <point x="509" y="1040" type="curve" smooth="yes"/>
      <point x="509" y="892"/>
      <point x="480" y="799"/>
      <point x="397" y="799" type="curve" smooth="yes"/>
      <point x="321" y="799"/>
      <point x="283" y="906"/>
      <point x="283" y="1047" type="curve" smooth="yes"/>
      <point x="283" y="1181"/>
      <point x="316" y="1283"/>
      <point x="394" y="1283" type="curve" smooth="yes"/>
    </contour>
    <contour>
      <point x="192" y="1470"/>
      <point x="68" y="1324"/>
      <point x="68" y="1050" type="curve"/>
      <point x="68" y="777"/>
      <point x="203" y="613"/>
      <point x="403" y="613" type="curve" smooth="yes"/>
      <point x="571" y="613"/>
      <point x="727" y="726"/>
      <point x="727" y="1034" type="curve" smooth="yes"/>
      <point x="727" y="1312"/>
      <point x="592" y="1470"/>
      <point x="392" y="1470" type="curve" smooth="yes"/>
    </contour>
    <contour>
      <point x="1246" y="599"/>
      <point x="1281" y="486"/>
      <point x="1281" y="357" type="curve" smooth="yes"/>
      <point x="1281" y="209"/>
      <point x="1252" y="116"/>
      <point x="1169" y="116" type="curve" smooth="yes"/>
      <point x="1092" y="116"/>
      <point x="1055" y="223"/>
      <point x="1055" y="362" type="curve" smooth="yes"/>
      <point x="1057" y="517"/>
      <point x="1086" y="599"/>
      <point x="1163" y="599" type="curve" smooth="yes"/>
    </contour>
    <contour>
      <point x="970" y="786"/>
      <point x="845" y="640"/>
      <point x="845" y="367" type="curve"/>
      <point x="845" y="94"/>
      <point x="981" y="-70"/>
      <point x="1181" y="-70" type="curve" smooth="yes"/>
      <point x="1349" y="-70"/>
      <point x="1505" y="43"/>
      <point x="1505" y="351" type="curve" smooth="yes"/>
      <point x="1505" y="629"/>
      <point x="1370" y="786"/>
      <point x="1170" y="786" type="curve" smooth="yes"/>
    </contour>
    <contour>
      <point x="1927" y="600"/>
      <point x="1960" y="486"/>
      <point x="1960" y="357" type="curve" smooth="yes"/>
      <point x="1960" y="209"/>
      <point x="1931" y="117"/>
      <point x="1848" y="117" type="curve" smooth="yes"/>
      <point x="1772" y="117"/>
      <point x="1734" y="224"/>
      <point x="1734" y="363" type="curve" smooth="yes"/>
      <point x="1734" y="500"/>
      <point x="1767" y="600"/>
      <point x="1845" y="600" type="curve" smooth="yes"/>
    </contour>
    <contour>
      <point x="1643" y="786"/>
      <point x="1519" y="640"/>
      <point x="1519" y="367" type="curve"/>
      <point x="1519" y="94"/>
      <point x="1654" y="-70"/>
      <point x="1854" y="-70" type="curve" smooth="yes"/>
      <point x="2022" y="-70"/>
      <point x="2178" y="43"/>
      <point x="2178" y="351" type="curve" smooth="yes"/>
      <point x="2178" y="629"/>
      <point x="2044" y="786"/>
      <point x="1843" y="786" type="curve" smooth="yes"/>
    </contour>
  </outline>
</glyph>
<glyph name="guilsinglleft" format="1">
  <advance width="508"/>
  <unicode hex="2039"/>
  <outline>
    <contour>
      <point x="338" y="209" type="line"/>
      <point x="494" y="371" type="line"/>
      <point x="287" y="608" type="line"/>
      <point x="498" y="855" type="line"/>
      <point x="337" y="1011" type="line"/>
      <point x="42" y="670" type="line"/>
      <point x="42" y="547" type="line"/>
    </contour>
  </outline>
</glyph>
<glyph name="fraction" format="1">
  <advance width="572"/>
  <unicode hex="2044"/>
  <outline>
    <contour>
      <point x="-62" y="-172" type="line"/>
      <point x="154" y="-172" type="line"/>
      <point x="634" y="1555" type="line"/>
      <point x="419" y="1555" type="line"/>
    </contour>
  </outline>
</glyph>
<glyph name="trademark" format="1">
  <advance width="1692"/>
  <unicode hex="2122"/>
  <outline>
    <contour>
      <point x="1385" y="1506" type="line" smooth="yes"/>
      <point x="1361" y="1506"/>
      <point x="1342" y="1499"/>
      <point x="1327" y="1488" type="curve" smooth="yes"/>
      <point x="1314" y="1478"/>
      <point x="1302" y="1463"/>
      <point x="1293" y="1441" type="curve" smooth="yes"/>
      <point x="1141" y="998" type="line"/>
      <point x="996" y="1433" type="line"/>
      <point x="984" y="1482"/>
      <point x="954" y="1505"/>
      <point x="905" y="1505" type="curve" smooth="yes"/>
      <point x="758" y="1506" type="line"/>
      <point x="758" y="594" type="line"/>
      <point x="939" y="594" type="line"/>
      <point x="939" y="1034" type="line"/>
      <point x="1053" y="682" type="line"/>
      <point x="1228" y="682" type="line"/>
      <point x="1351" y="1046" type="line"/>
      <point x="1351" y="594" type="line"/>
      <point x="1533" y="594" type="line"/>
      <point x="1533" y="1506" type="line"/>
    </contour>
    <contour>
      <point x="82" y="1506" type="line"/>
      <point x="82" y="1332" type="line"/>
      <point x="285" y="1332" type="line"/>
      <point x="285" y="594" type="line"/>
      <point x="473" y="594" type="line"/>
      <point x="473" y="1332" type="line"/>
      <point x="677" y="1332" type="line"/>
      <point x="677" y="1506" type="line"/>
    </contour>
  </outline>
</glyph>
<glyph name="glyph00230" format="1">
  <advance width="480"/>
  <outline>
    <contour>
      <point x="40" y="-266" type="line"/>
      <point x="265" y="-266" type="line"/>
      <point x="440" y="1763" type="line"/>
      <point x="215" y="1763" type="line"/>
    </contour>
  </outline>
</glyph>
